{"title":"Under.the.Dome.S03E09.HDTV.480p.x264.AAC-VYTO [P2PDL]","uid":12229385,"size":152932450,"categoryP":"video","categoryS":"hd___tv_shows","magnet":"?xt=urn:btih:3d10d4a63455c3c690c9a89114fc8ddc32f03328&amp;dn=Under.the.Dome.S03E09.HDTV.480p.x264.AAC-VYTO+%5BP2PDL%5D&amp;tr=udp%3A%2F%2Ftracker.openbittorrent.com%3A80&amp;tr=udp%3A%2F%2Fopen.demonii.com%3A1337&amp;tr=udp%3A%2F%2Ftracker.coppersurfer.tk%3A6969&amp;tr=udp%3A%2F%2Fexodus.desync.com%3A6969","seeders":3,"leechers":1,"uploader":"ValidusVyto","files":6,"time":1439538413,"description":"____    ____ ____    ____ .___________.  ______   \n     /   /      /   / |           | /  __    \n    /   /      /   /  `---|  |----`|  |  |  | \n        /     _    _/       |  |     |  |  |  | \n       /        |  |         |  |     |  `--'  | \n    __/         |__|         |__|      ______/  \n                                                  \nPresenting Small Encodes with quality for years!\n                                                                                                   \n                                                                                                   \n\nUnder.the.Dome.S03E09.HDTV.480p.x264.AAC-VYTO\n\n\nGeneral\nFormat                         : MPEG-4\nFile size                      : 140 MiB\nDuration                       : 42mn 3s\nOverall bit rate               : 467 Kbps\n\nVideo\nFormat                         : AVC\nBit rate                       : 432 Kbps\nWidth                          : 720 pixels\nHeight                         : 400 pixels\nDisplay aspect ratio           : 16:9\nFrame rate mode                : Constant\nFrame rate                     : 23.976 fps\nBit depth                      : 8 bits\nStream size                    : 130 MiB (92%)\nWriting library                : x264 core 148 r2579\n\nAudio\nFormat                         : AAC\nBit rate                       : 32.0 Kbps\nChannel(s)                     : 2 channels \nChannel positions              : Front: L R\nSampling rate                  : 48.0 KHz\nStream size                    : 9.62 MiB (7%)\n\n\n\nScreenshots:\n &lt;a href=&quot;\nhttp://ititli.com/HD&quot; rel=&quot;nofollow&quot; target=&quot;_NEW&quot;&gt;\nhttp://ititli.com/HD&lt;/a&gt; &lt;a href=&quot;\nhttp://ititli.com/Ha&quot; rel=&quot;nofollow&quot; target=&quot;_NEW&quot;&gt;\nhttp://ititli.com/Ha&lt;/a&gt; &lt;a href=&quot;\nhttp://ititli.com/Hb&quot; rel=&quot;nofollow&quot; target=&quot;_NEW&quot;&gt;\nhttp://ititli.com/Hb&lt;/a&gt; &lt;a href=&quot;\nhttp://ititli.com/Hz&quot; rel=&quot;nofollow&quot; target=&quot;_NEW&quot;&gt;\nhttp://ititli.com/Hz&lt;/a&gt; &lt;a href=&quot;\nhttp://ititli.com/HI&quot; rel=&quot;nofollow&quot; target=&quot;_NEW&quot;&gt;\nhttp://ititli.com/HI&lt;/a&gt; &lt;a href=&quot;\nhttp://ititli.com/HO&quot; rel=&quot;nofollow&quot; target=&quot;_NEW&quot;&gt;\nhttp://ititli.com/HO&lt;/a&gt; &lt;a href=&quot;\nhttp://ititli.com/M9&quot; rel=&quot;nofollow&quot; target=&quot;_NEW&quot;&gt;\nhttp://ititli.com/M9&lt;/a&gt; &lt;a href=&quot;\nhttp://ititli.com/MX&quot; rel=&quot;nofollow&quot; target=&quot;_NEW&quot;&gt;\nhttp://ititli.com/MX&lt;/a&gt; &lt;a href=&quot;\nhttp://ititli.com/Mq&quot; rel=&quot;nofollow&quot; target=&quot;_NEW&quot;&gt;\nhttp://ititli.com/Mq&lt;/a&gt; &lt;a href=&quot;\nhttp://ititli.com/Mr&quot; rel=&quot;nofollow&quot; target=&quot;_NEW&quot;&gt;\nhttp://ititli.com/Mr&lt;/a&gt; &lt;a href=&quot;\nhttp://ititli.com/M1&quot; rel=&quot;nofollow&quot; target=&quot;_NEW&quot;&gt;\nhttp://ititli.com/M1&lt;/a&gt; &lt;a href=&quot;\nhttp://ititli.com/MT&quot; rel=&quot;nofollow&quot; target=&quot;_NEW&quot;&gt;\nhttp://ititli.com/MT&lt;/a&gt;\n\n----------------------------------------------------------------------------------------------------\n\n\nEncoder Notes: Looking For Early Access To Anything You Can Provide DVDScr, R5, DVDR, BluRay, Direct\nAudio, Music Releases and Seedboxes. If You Got anything to offer please contact us.\n\nSupport us by donating BC - 1FgwdzPsd1y25Gea8wP1qni35uGCtmkRCD","torrent":{"xt":"urn:btih:3d10d4a63455c3c690c9a89114fc8ddc32f03328","amp;dn":"Under.the.Dome.S03E09.HDTV.480p.x264.AAC-VYTO+%5BP2PDL%5D","amp;tr":["udp%3A%2F%2Ftracker.openbittorrent.com%3A80","udp%3A%2F%2Fopen.demonii.com%3A1337","udp%3A%2F%2Ftracker.coppersurfer.tk%3A6969","udp%3A%2F%2Fexodus.desync.com%3A6969"],"infoHash":"3d10d4a63455c3c690c9a89114fc8ddc32f03328","infoHashBuffer":{"type":"Buffer","data":[61,16,212,166,52,85,195,198,144,201,168,145,20,252,141,220,50,240,51,40]},"announce":[],"urlList":[]}}